# 3ds Max Wavefront OBJ Exporter v0.99 - (c)2007 guruware
# File Created: 19.05.2023 20:33:12

#
# object Box001
#

v  -0.500000 -0.500000 1.000000
v  -0.500000 -0.500000 -0.000000
v  0.500000 -0.500000 -0.000000
v  0.500000 -0.500000 1.000000
v  -0.500000 0.500000 1.000000
v  0.500000 0.500000 1.000000
v  0.500000 0.500000 -0.000000
v  -0.500000 0.500000 -0.000000
# 8 vertices

vn 0.000000 -1.000000 -0.000000
vn 0.000000 1.000000 -0.000000
vn 0.000000 0.000000 1.000000
vn 1.000000 0.000000 -0.000000
vn 0.000000 0.000000 -1.000000
vn -1.000000 0.000000 -0.000000
# 6 vertex normals

vt 1.000000 0.000000 0.000000
vt 1.000000 1.000000 0.000000
vt 0.000000 1.000000 0.000000
vt 0.000000 0.000000 0.000000
# 4 texture coords

o Box001
g Box001
s 2
f -8/-4/-6 -7/-3/-6 -6/-2/-6 
f -6/-2/-6 -5/-1/-6 -8/-4/-6 
s 4
f -4/-1/-5 -3/-4/-5 -2/-3/-5 
f -2/-3/-5 -1/-2/-5 -4/-1/-5 
s 8
f -8/-1/-4 -5/-4/-4 -3/-3/-4 
f -3/-3/-4 -4/-2/-4 -8/-1/-4 
s 16
f -5/-1/-3 -6/-4/-3 -2/-3/-3 
f -2/-3/-3 -3/-2/-3 -5/-1/-3 
s 32
f -6/-1/-2 -7/-4/-2 -1/-3/-2 
f -1/-3/-2 -2/-2/-2 -6/-1/-2 
s 64
f -7/-1/-1 -8/-4/-1 -4/-3/-1 
f -4/-3/-1 -1/-2/-1 -7/-1/-1 
# 12 faces

